<svg id="Layer_1" data-name="Layer 1" xmlns="http://www.w3.org/2000/svg" viewBox="0 0 229.61 230.17"><defs><style>.cls-1,.cls-4{fill:#069;}.cls-1{fill-rule:evenodd;}.cls-2{fill:#396;}.cls-3{fill:#900;}</style></defs><g id="Layer_2" data-name="Layer 2"><g id="Layer_1-2" data-name="Layer 1-2"><path class="cls-1" d="M180.84,81.24q-2.85,0-6.43.35a56,56,0,0,1-6.07.37c-1.66,0-3.73-.12-6.19-.37-2.67-.23-5-.34-6.9-.35-.72,0-1.07.55-1.07,1.67s.23,1.66.71,1.66c5.32.25,8,2.3,8,6.2a14.31,14.31,0,0,1-1.19,5.35l-16.25,37.79,2.64,5.93,19.2-43.25c2-4.52,3.9-7.59,5.77-9.19a12.51,12.51,0,0,1,7.2-2.83,1.25,1.25,0,0,0,1-.59,2.17,2.17,0,0,0,.45-1.32C181.68,81.71,181.4,81.24,180.84,81.24Z"/><path class="cls-1" d="M123,84.57q8,.38,8,5.83a12.88,12.88,0,0,1-1.79,5.72l-.33.61,2.65,5.93,3.28-6.07q4.22-7.38,7-9.46a15.17,15.17,0,0,1,7.47-2.56c.87,0,1.31-.64,1.31-1.91,0-1-.24-1.42-.71-1.42-2,0-4.55.14-7.56.41-2.38.2-4.19.31-5.41.31q-2.57,0-6.55-.37c-2.78-.23-5.11-.34-7-.35-.23,0-.47.18-.71.54a2,2,0,0,0-.36,1.13C122.27,84,122.51,84.57,123,84.57Z"/><path class="cls-1" d="M92.63,133.78,75.32,94.69a9.26,9.26,0,0,1-1-3.57,5.42,5.42,0,0,1,2.3-4.53,11.83,11.83,0,0,1,6.28-2c.39,0,.59-.55.59-1.66s-.32-1.67-1-1.67c-2.65,0-5.71.12-9.16.35-3.29.25-6.15.38-8.58.37s-5-.13-7.61-.37c-2.9-.23-5.68-.34-8.34-.35-.63,0-1,.55-1,1.67a1.69,1.69,0,0,0,.42,1.15,1.18,1.18,0,0,0,.9.51,16.18,16.18,0,0,1,8.62,3.13q3.1,2.52,5.89,8.89l21.92,50.27Z"/><path class="cls-2" d="M137.51,164.71a1.58,1.58,0,0,0,1.44,1H152a1.54,1.54,0,0,0,1.54-1.54,1.57,1.57,0,0,0-.14-.64L121.52,92a19.21,19.21,0,0,0-4.11-5.83,16.21,16.21,0,0,0-6.33-3.61A34,34,0,0,0,101,81.3,41.17,41.17,0,0,0,89.23,83a1.55,1.55,0,0,0-1.06,1.73L90,95.81a1.52,1.52,0,0,0,1.5,1.29A1.71,1.71,0,0,0,92,97a20,20,0,0,1,6.42-1,14.75,14.75,0,0,1,4.76.64,7.8,7.8,0,0,1,3.08,1.86,10.1,10.1,0,0,1,2,3c.55,1.17,1.13,2.53,1.74,4l1.29,3.27L82.18,163.6a1.56,1.56,0,0,0,.93,2,1.5,1.5,0,0,0,.52.09H99.05a1.52,1.52,0,0,0,1.41-.92l.09-.17,19.6-36.22Z"/><path class="cls-3" d="M43.07,59.93a90.23,90.23,0,0,1,143.14-.43l20.32-13.65a114.68,114.68,0,0,0-184,.74Z"/><path class="cls-4" d="M198.47,80.68a89.93,89.93,0,0,1,6.71,34.12c0,49.84-40.54,90.94-90.38,90.94s-90.37-41.1-90.37-90.94a89.65,89.65,0,0,1,6.51-33.62L10.13,67.67A114,114,0,0,0,0,114.8c0,63.31,51.5,115.37,114.8,115.37S229.61,178.11,229.61,114.8a114.17,114.17,0,0,0-10.52-48Z"/></g></g></svg>